<svg width="19" height="12" viewBox="0 0 19 12" fill="none" xmlns="http://www.w3.org/2000/svg">
<g clip-path="url(#clip0_1_10)">
<rect width="19" height="12" fill="white"/>
<path fill-rule="evenodd" clip-rule="evenodd" d="M5.4917 10.3637C5.58555 10.3637 5.66659 10.3094 5.73484 10.2006C5.80308 10.0919 5.83721 9.96276 5.83721 9.81324V4.81803C5.83721 4.81124 5.83934 4.80784 5.84361 4.80784C5.84787 4.80784 5.85001 4.81124 5.85001 4.81803L7.6735 9.8846C7.79293 10.204 7.96569 10.3637 8.19176 10.3637C8.2856 10.3637 8.36664 10.3094 8.43489 10.2006C8.50314 10.0919 8.53726 9.96276 8.53726 9.81324V0.188967C8.53726 0.121873 8.53039 0.0588835 8.51665 0H19V12H10.2336L10.2336 4.77964C10.2336 4.77307 10.2357 4.76979 10.2398 4.76979C10.2439 4.76979 10.246 4.77307 10.246 4.77964L11.1614 7.67687C11.2562 7.9725 11.4046 8.12032 11.6067 8.12032C11.8087 8.12032 11.9572 7.9725 12.052 7.67687L12.9674 4.77964C12.9674 4.77307 12.9694 4.76979 12.9736 4.76979C12.9777 4.76979 12.9797 4.77307 12.9797 4.77964V9.54922C12.9797 9.70033 13.0127 9.82843 13.0787 9.93355C13.1447 10.0387 13.2251 10.0912 13.3199 10.0912C13.4147 10.0912 13.4952 10.0387 13.5611 9.93355C13.6271 9.82843 13.6601 9.70033 13.6601 9.54922V3.43943C13.6601 3.28833 13.6271 3.16022 13.5611 3.05511C13.4952 2.94999 13.4147 2.89743 13.3199 2.89743C13.0931 2.89743 12.9282 3.05839 12.8251 3.3803L11.6129 7.12501C11.6129 7.13158 11.6108 7.13487 11.6067 7.13487C11.6026 7.13487 11.6005 7.13158 11.6005 7.12501L10.3821 3.3606C10.2831 3.05182 10.1244 2.89743 9.90582 2.89743C9.81511 2.89743 9.73676 2.94999 9.67079 3.05511C9.60894 3.15365 9.57802 3.27519 9.57802 3.41972L9.57802 12H0V0H7.86687C7.85312 0.0588835 7.84625 0.121873 7.84625 0.188967V8.4676C7.84625 8.47439 7.84412 8.47779 7.83985 8.47779C7.83132 8.47779 7.82706 8.47439 7.82706 8.4676L6.00996 3.40102C5.89053 3.0816 5.71777 2.92189 5.4917 2.92189C5.39786 2.92189 5.31682 2.97626 5.24857 3.085C5.18032 3.19374 5.1462 3.32287 5.1462 3.47238V9.81324C5.1462 9.96276 5.18032 10.0919 5.24857 10.2006C5.31682 10.3094 5.39786 10.3637 5.4917 10.3637ZM2.83889 6.50569C2.32131 6.50569 1.90588 6.33884 1.59261 6.00514C1.28275 5.67144 1.12781 5.19983 1.12781 4.59031C1.12781 3.98761 1.27764 3.5177 1.57729 3.18059C1.88035 2.84349 2.30088 2.67493 2.83889 2.67493C3.07044 2.67493 3.28155 2.69196 3.47224 2.72601C3.54034 2.73963 3.59653 2.77538 3.64079 2.83327C3.68506 2.88775 3.70719 2.95075 3.70719 3.02226C3.70719 3.08355 3.68165 3.13292 3.63058 3.17038C3.58291 3.20443 3.53013 3.21294 3.47224 3.19592C3.3122 3.15506 3.11811 3.13462 2.88996 3.13462C2.52221 3.13462 2.23107 3.26232 2.01655 3.5177C1.80543 3.76968 1.69987 4.12722 1.69987 4.59031C1.69987 5.05341 1.80884 5.41265 2.02677 5.66803C2.24469 5.92001 2.53243 6.046 2.88996 6.046C3.1147 6.046 3.31731 6.02387 3.49778 5.9796C3.55567 5.96258 3.60844 5.97279 3.65612 6.01025C3.70719 6.04771 3.73273 6.09708 3.73273 6.15837C3.73273 6.22988 3.7106 6.29458 3.66633 6.35246C3.62206 6.40695 3.56418 6.441 3.49267 6.45462C3.29177 6.48867 3.07384 6.50569 2.83889 6.50569ZM15.207 4.51212V3.14248C15.207 3.1147 15.2227 3.09734 15.2539 3.0904C15.4032 3.06957 15.5612 3.05915 15.7278 3.05915C16.0403 3.05915 16.2764 3.12512 16.4361 3.25705C16.5958 3.38551 16.6756 3.57472 16.6756 3.8247C16.6756 4.07467 16.594 4.26736 16.4309 4.40276C16.2677 4.53469 16.0333 4.60065 15.7278 4.60065C15.5889 4.60065 15.431 4.5885 15.2539 4.5642C15.2227 4.55725 15.207 4.5399 15.207 4.51212ZM14.9206 6.45462C15.0005 6.45462 15.0682 6.42684 15.1237 6.37129C15.1793 6.31574 15.207 6.24804 15.207 6.16819V5.06935C15.207 5.04158 15.2209 5.02769 15.2487 5.02769C15.398 5.04158 15.5751 5.04852 15.7799 5.04852C16.752 5.04852 17.2381 4.62322 17.2381 3.77262C17.2381 3.39766 17.1148 3.1095 16.8683 2.90813C16.6218 2.70329 16.259 2.60087 15.7799 2.60087C15.5056 2.60087 15.2209 2.61476 14.9258 2.64253C14.8425 2.64948 14.7731 2.68593 14.7175 2.7519C14.662 2.81786 14.6342 2.89251 14.6342 2.97583V6.16819C14.6342 6.24804 14.662 6.31574 14.7175 6.37129C14.7731 6.42684 14.8408 6.45462 14.9206 6.45462Z" fill="url(#paint0_linear_1_10)"/>
</g>
<defs>
<linearGradient id="paint0_linear_1_10" x1="9.54232" y1="11.9781" x2="9.54232" y2="-8.04898e-07" gradientUnits="userSpaceOnUse">
<stop stop-color="#1679AB"/>
<stop offset="0.585" stop-color="#102C57"/>
</linearGradient>
<clipPath id="clip0_1_10">
<rect width="19" height="12" fill="white"/>
</clipPath>
</defs>
</svg>
