<svg width="144" height="86" viewBox="0 0 144 86" fill="none" xmlns="http://www.w3.org/2000/svg">
<path fill-rule="evenodd" clip-rule="evenodd" d="M51.3699 36.3391C51.8941 36.3391 52.3469 36.1485 52.7282 35.7672C53.1095 35.3859 53.3001 34.9332 53.3001 34.4089V16.8937C53.3001 16.8699 53.312 16.858 53.3359 16.858C53.3597 16.858 53.3716 16.8699 53.3716 16.8937L63.559 34.6591C64.2263 35.7791 65.1914 36.3391 66.4544 36.3391C66.9786 36.3391 67.4314 36.1485 67.8127 35.7672C68.194 35.3859 68.3846 34.9332 68.3846 34.4089V0.662392C68.3846 0.427208 68.3463 0.206411 68.2695 0H126.838V42.0768H77.8614L77.8614 16.759C77.8614 16.7359 77.8729 16.7244 77.8959 16.7244C77.919 16.7244 77.9305 16.7359 77.9305 16.759L83.0444 26.9178C83.5743 27.9544 84.4035 28.4727 85.5323 28.4727C86.6611 28.4727 87.4903 27.9544 88.0202 26.9178L93.1341 16.759C93.1341 16.7359 93.1457 16.7244 93.1687 16.7244C93.1917 16.7244 93.2032 16.7359 93.2032 16.759V33.483C93.2032 34.0128 93.3875 34.462 93.7561 34.8306C94.1247 35.1992 94.5739 35.3835 95.1037 35.3835C95.6335 35.3835 96.0827 35.1992 96.4513 34.8306C96.8199 34.462 97.0042 34.0128 97.0042 33.483V12.0597C97.0042 11.5298 96.8199 11.0806 96.4513 10.7121C96.0827 10.3435 95.6335 10.1592 95.1037 10.1592C93.8367 10.1592 92.9153 10.7236 92.3394 11.8523L85.5669 24.9828C85.5669 25.0058 85.5553 25.0173 85.5323 25.0173C85.5093 25.0173 85.4977 25.0058 85.4977 24.9828L78.6907 11.7832C78.1378 10.7005 77.2509 10.1592 76.03 10.1592C75.5232 10.1592 75.0855 10.3435 74.717 10.7121C74.3714 11.0576 74.1987 11.4838 74.1987 11.9906L74.1987 42.0768H20.6898V0H64.6392C64.5625 0.206411 64.5241 0.427208 64.5241 0.662392V29.6905C64.5241 29.7144 64.5122 29.7263 64.4884 29.7263C64.4407 29.7263 64.4169 29.7144 64.4169 29.6905L54.2652 11.9251C53.598 10.8051 52.6329 10.2451 51.3699 10.2451C50.8456 10.2451 50.3928 10.4357 50.0115 10.817C49.6303 11.1983 49.4396 11.6511 49.4396 12.1754V34.4089C49.4396 34.9332 49.6303 35.3859 50.0115 35.7672C50.3928 36.1485 50.8456 36.3391 51.3699 36.3391ZM38.5402 34.9453C35.106 34.9453 32.3497 33.8382 30.2711 31.6241C28.2151 29.41 27.1871 26.2808 27.1871 22.2367C27.1871 18.2377 28.1812 15.1198 30.1694 12.8831C32.1802 10.6464 34.9705 9.52804 38.5402 9.52804C40.0765 9.52804 41.4773 9.64101 42.7425 9.86694C43.1944 9.95731 43.5671 10.1945 43.8609 10.5786C44.1546 10.9401 44.3014 11.3581 44.3014 11.8325C44.3014 12.2392 44.132 12.5668 43.7931 12.8153C43.4768 13.0413 43.1266 13.0978 42.7425 12.9848C41.6806 12.7137 40.3928 12.5781 38.8791 12.5781C36.439 12.5781 34.5073 13.4254 33.0839 15.1198C31.6832 16.7917 30.9828 19.164 30.9828 22.2367C30.9828 25.3093 31.7058 27.6929 33.1517 29.3874C34.5977 31.0593 36.5068 31.8952 38.8791 31.8952C40.3702 31.8952 41.7145 31.7484 42.9119 31.4547C43.296 31.3417 43.6462 31.4095 43.9625 31.658C44.3014 31.9065 44.4709 32.2341 44.4709 32.6408C44.4709 33.1152 44.324 33.5445 44.0303 33.9286C43.7366 34.2901 43.3525 34.516 42.878 34.6064C41.5451 34.8323 40.0991 34.9453 38.5402 34.9453ZM106.698 22.7178V13.6302C106.698 13.4459 106.801 13.3307 107.009 13.2847C107.999 13.1465 109.047 13.0774 110.153 13.0774C112.226 13.0774 113.793 13.515 114.852 14.3904C115.912 15.2427 116.442 16.4982 116.442 18.1568C116.442 19.8153 115.901 21.0938 114.818 21.9922C113.735 22.8676 112.18 23.3053 110.153 23.3053C109.232 23.3053 108.184 23.2246 107.009 23.0634C106.801 23.0173 106.698 22.9021 106.698 22.7178ZM104.797 35.6064C105.327 35.6064 105.776 35.4221 106.145 35.0535C106.513 34.685 106.698 34.2358 106.698 33.7059V26.4151C106.698 26.2308 106.79 26.1387 106.974 26.1387C107.965 26.2308 109.14 26.2769 110.499 26.2769C116.949 26.2769 120.174 23.455 120.174 17.8112C120.174 15.3233 119.356 13.4114 117.72 12.0753C116.085 10.7162 113.678 10.0366 110.499 10.0366C108.679 10.0366 106.79 10.1288 104.832 10.3131C104.279 10.3591 103.818 10.601 103.45 11.0387C103.081 11.4764 102.897 11.9716 102.897 12.5245V33.7059C102.897 34.2358 103.081 34.685 103.45 35.0535C103.818 35.4221 104.268 35.6064 104.797 35.6064Z" fill="url(#paint0_linear_1_102)"/>
<path d="M7.22087 63.654C3.94647 63.654 2.30927 62.5985 2.30927 60.4876V54.9463C2.30927 52.7154 3.94647 51.5999 7.22087 51.5999C8.33632 51.5999 9.4038 51.7139 10.4233 51.9418V53.2371C9.27187 52.9493 8.21638 52.8053 7.25685 52.8053C6.78908 52.8053 6.38128 52.8353 6.03345 52.8953C5.68562 52.9433 5.34978 53.0332 5.02594 53.1652C4.33028 53.465 3.98245 54.0527 3.98245 54.9283V60.3976C3.98245 61.741 5.09791 62.4126 7.32882 62.4126C8.28835 62.4126 9.34383 62.2687 10.4953 61.9809V63.3122C9.47577 63.5401 8.3843 63.654 7.22087 63.654ZM12.8243 51.7978H14.9293L21.2802 61.4411V51.7978H22.8094V63.4741H20.7044L14.3535 53.6689V63.4741H12.8243V51.7978ZM25.8258 51.7978H28.4345L32.1767 61.5131L32.2306 61.5311L35.7749 51.7978H38.2937V63.4741H36.7644V53.5969H36.6745L32.9143 63.4741H31.3491L27.4809 53.5969H27.391V63.4741H25.8258V51.7978ZM41.3221 51.7978H45.1362C45.676 51.7978 46.1078 51.8098 46.4316 51.8338C46.7674 51.8578 47.1213 51.9118 47.4931 51.9957C47.8769 52.0797 48.1827 52.2056 48.4106 52.3735C48.6505 52.5415 48.8544 52.7693 49.0223 53.0572C49.1783 53.3331 49.2562 53.6809 49.2562 54.1007V56.5295C49.2562 57.501 48.8784 58.2027 48.1228 58.6345C47.3791 59.0543 46.2757 59.2642 44.8124 59.2642H43.0672V63.4741H41.3221V51.7978ZM45.0463 58.1667C45.8019 58.1667 46.4076 58.0288 46.8634 57.7529C47.3192 57.477 47.5471 57.0393 47.5471 56.4396V54.3166C47.5471 53.9927 47.4631 53.7289 47.2952 53.525C47.1273 53.3091 46.8874 53.1592 46.5755 53.0752C46.2757 53.0032 46.0238 52.9553 45.8199 52.9313C45.616 52.9073 45.3461 52.8953 45.0103 52.8953H43.0493V58.1667H45.0463ZM55.7291 51.7978H57.4743V63.4741H55.7291V51.7978ZM60.3825 54.7664H62.0017V55.8279C62.1697 55.0003 63.1232 54.5865 64.8623 54.5865C65.9778 54.5865 66.7574 54.7904 67.2012 55.1982C67.657 55.594 67.8849 56.2237 67.8849 57.0872V63.4741H66.2657V57.1772C66.2657 56.9493 66.2477 56.7634 66.2117 56.6195C66.1757 56.4755 66.1037 56.3316 65.9958 56.1877C65.7559 55.8878 65.2222 55.7379 64.3946 55.7379C63.7589 55.7379 63.2671 55.7859 62.9193 55.8818C62.5835 55.9658 62.3436 56.1097 62.1996 56.3136C62.0677 56.5175 62.0017 56.8054 62.0017 57.1772V63.4741H60.3825V54.7664ZM69.4005 54.7664H71.1096L73.5205 62.0708H73.6104L75.9493 54.7664H77.5145L74.474 63.4741H72.531L69.4005 54.7664ZM82.694 63.654C80.0313 63.654 78.7 62.7665 78.7 60.9913V57.555C78.7 56.4995 78.9998 55.7439 79.5995 55.2881C80.2112 54.8203 81.1948 54.5865 82.5501 54.5865C83.8335 54.5865 84.757 54.8084 85.3207 55.2521C85.8965 55.6959 86.1843 56.4635 86.1843 57.555V59.4801H80.3372V60.7934C80.3372 61.3931 80.5471 61.8249 80.9669 62.0888C81.3867 62.3527 82.0343 62.4846 82.9099 62.4846C83.7375 62.4846 84.715 62.3407 85.8425 62.0528V63.2942C84.739 63.5341 83.6895 63.654 82.694 63.654ZM84.5651 58.4186V57.0513C84.5651 56.5235 84.4032 56.1637 84.0793 55.9718C83.7675 55.7679 83.2278 55.6659 82.4601 55.6659C81.7165 55.6659 81.1768 55.7679 80.8409 55.9718C80.5051 56.1637 80.3372 56.5235 80.3372 57.0513V58.4186H84.5651ZM91.3146 63.654C90.3911 63.654 89.3956 63.5821 88.3281 63.4381V62.1967C89.7314 62.4246 90.7389 62.5386 91.3506 62.5386C92.1182 62.5386 92.67 62.4666 93.0058 62.3227C93.3416 62.1668 93.5096 61.8849 93.5096 61.4771V60.5955C93.5096 60.2237 93.3836 59.9598 93.1317 59.8039C92.8799 59.648 92.4721 59.57 91.9083 59.57H90.9188C90.0193 59.57 89.3296 59.3841 88.8498 59.0123C88.3821 58.6405 88.1482 58.1187 88.1482 57.4471V56.6375C88.1482 55.2701 89.4435 54.5865 92.0343 54.5865C92.2262 54.5865 93.1078 54.6344 94.679 54.7304V55.8998C93.6115 55.7319 92.7059 55.6479 91.9623 55.6479C91.1107 55.6479 90.529 55.7319 90.2172 55.8998C89.9053 56.0677 89.7494 56.3496 89.7494 56.7454V57.483C89.7494 58.0708 90.2831 58.3646 91.3506 58.3646H92.3581C94.1932 58.3646 95.1108 59.0483 95.1108 60.4156V61.1712C95.1108 62.0708 94.7989 62.7125 94.1752 63.0963C93.5515 63.4681 92.598 63.654 91.3146 63.654ZM101.001 63.654C100.257 63.654 99.6757 63.5761 99.2559 63.4201C98.8361 63.2522 98.5303 62.9764 98.3384 62.5926C98.1585 62.1967 98.0685 61.645 98.0685 60.9374V55.8279H96.1254V54.7664H98.0685V52.0677H99.7057V54.7664H102.818V55.8279H99.7057V61.0273C99.7057 61.4591 99.7537 61.7829 99.8496 61.9988C99.9576 62.2147 100.137 62.3707 100.389 62.4666C100.653 62.5506 101.031 62.5926 101.523 62.5926C101.679 62.5926 102.111 62.5446 102.818 62.4486V63.5101C102.206 63.6061 101.601 63.654 101.001 63.654ZM104.588 54.7664H106.207V55.8279C106.375 55.0003 107.352 54.5865 109.139 54.5865C110.591 54.5865 111.496 54.9823 111.856 55.7739C111.964 55.3901 112.288 55.0962 112.827 54.8923C113.379 54.6884 114.051 54.5865 114.842 54.5865C115.922 54.5865 116.684 54.7904 117.127 55.1982C117.571 55.594 117.793 56.2237 117.793 57.0872V63.4741H116.174V57.1952C116.174 56.9673 116.156 56.7814 116.12 56.6375C116.084 56.4935 116.012 56.3496 115.904 56.2057C115.664 55.9058 115.13 55.7559 114.303 55.7559C113.667 55.7559 113.193 55.7979 112.881 55.8818C112.57 55.9658 112.354 56.1097 112.234 56.3136C112.126 56.5175 112.072 56.8114 112.072 57.1952V63.4741H110.453V57.1952C110.453 56.9673 110.435 56.7814 110.399 56.6375C110.363 56.4935 110.291 56.3496 110.183 56.2057C109.943 55.9058 109.415 55.7559 108.6 55.7559C107.94 55.7559 107.442 55.7979 107.106 55.8818C106.77 55.9658 106.537 56.1097 106.405 56.3136C106.273 56.5055 106.207 56.7994 106.207 57.1952V63.4741H104.588V54.7664ZM124.264 63.654C121.601 63.654 120.27 62.7665 120.27 60.9913V57.555C120.27 56.4995 120.569 55.7439 121.169 55.2881C121.781 54.8203 122.764 54.5865 124.12 54.5865C125.403 54.5865 126.327 54.8084 126.89 55.2521C127.466 55.6959 127.754 56.4635 127.754 57.555V59.4801H121.907V60.7934C121.907 61.3931 122.117 61.8249 122.536 62.0888C122.956 62.3527 123.604 62.4846 124.479 62.4846C125.307 62.4846 126.285 62.3407 127.412 62.0528V63.2942C126.309 63.5341 125.259 63.654 124.264 63.654ZM126.135 58.4186V57.0513C126.135 56.5235 125.973 56.1637 125.649 55.9718C125.337 55.7679 124.797 55.6659 124.03 55.6659C123.286 55.6659 122.746 55.7679 122.41 55.9718C122.075 56.1637 121.907 56.5235 121.907 57.0513V58.4186H126.135ZM130.221 54.7664H131.841V55.8279C132.009 55.0003 132.962 54.5865 134.701 54.5865C135.817 54.5865 136.596 54.7904 137.04 55.1982C137.496 55.594 137.724 56.2237 137.724 57.0872V63.4741H136.105V57.1772C136.105 56.9493 136.087 56.7634 136.051 56.6195C136.015 56.4755 135.943 56.3316 135.835 56.1877C135.595 55.8878 135.061 55.7379 134.234 55.7379C133.598 55.7379 133.106 55.7859 132.758 55.8818C132.422 55.9658 132.183 56.1097 132.039 56.3136C131.907 56.5175 131.841 56.8054 131.841 57.1772V63.4741H130.221V54.7664ZM144.187 63.654C143.443 63.654 142.862 63.5761 142.442 63.4201C142.022 63.2522 141.716 62.9764 141.524 62.5926C141.344 62.1967 141.254 61.645 141.254 60.9374V55.8279H139.311V54.7664H141.254V52.0677H142.892V54.7664H146.004V55.8279H142.892V61.0273C142.892 61.4591 142.94 61.7829 143.036 61.9988C143.144 62.2147 143.323 62.3707 143.575 62.4666C143.839 62.5506 144.217 62.5926 144.709 62.5926C144.865 62.5926 145.296 62.5446 146.004 62.4486V63.5101C145.392 63.6061 144.787 63.654 144.187 63.654ZM14.59 70.7978H18.4042C18.9439 70.7978 19.3757 70.8098 19.6995 70.8338C20.0354 70.8578 20.3892 70.9118 20.761 70.9957C21.1448 71.0797 21.4507 71.2056 21.6786 71.3735C21.9185 71.5415 22.1224 71.7693 22.2903 72.0572C22.4462 72.3331 22.5242 72.6809 22.5242 73.1007V75.5295C22.5242 76.501 22.1463 77.2027 21.3907 77.6345C20.6471 78.0543 19.5436 78.2642 18.0803 78.2642H16.3352V82.4741H14.59V70.7978ZM18.3142 77.1667C19.0698 77.1667 19.6755 77.0288 20.1313 76.7529C20.5871 76.477 20.815 76.0393 20.815 75.4396V73.3166C20.815 72.9927 20.731 72.7289 20.5631 72.525C20.3952 72.3091 20.1553 72.1592 19.8435 72.0752C19.5436 72.0032 19.2917 71.9553 19.0878 71.9313C18.8839 71.9073 18.6141 71.8953 18.2782 71.8953H16.3172V77.1667H18.3142ZM24.7427 73.7664H26.272V75.1877C26.272 74.9118 26.3919 74.6539 26.6318 74.4141C26.8717 74.1622 27.1775 73.9643 27.5493 73.8203C27.9211 73.6644 28.287 73.5865 28.6468 73.5865H29.4384V74.9718H28.5388C27.7712 74.9718 27.2135 75.0737 26.8657 75.2776C26.5298 75.4695 26.3619 75.8234 26.3619 76.3391V82.4741H24.7427V73.7664ZM31.0502 70.6179H32.6694V72.3091H31.0502V70.6179ZM31.0502 73.7664H32.6694V82.4741H31.0502V73.7664ZM34.1823 73.7664H35.8915L38.3023 81.0708H38.3923L40.7311 73.7664H42.2964L39.2558 82.4741H37.3128L34.1823 73.7664ZM46.4864 82.654C45.6588 82.654 45.0171 82.5761 44.5613 82.4201C44.1175 82.2642 43.7937 81.9884 43.5898 81.5926C43.3979 81.1967 43.3019 80.627 43.3019 79.8834C43.3019 79.2237 43.3919 78.714 43.5718 78.3541C43.7637 77.9823 44.0815 77.7184 44.5253 77.5625C44.9811 77.4066 45.6228 77.3286 46.4504 77.3286H49.0591V75.9433C49.0591 75.6195 48.9931 75.3736 48.8612 75.2057C48.7412 75.0258 48.5314 74.8998 48.2315 74.8279C47.9436 74.7559 47.5178 74.7199 46.9541 74.7199C46.0546 74.7199 45.059 74.7919 43.9676 74.9358V73.7484C45.155 73.6404 46.2285 73.5865 47.188 73.5865C48.1955 73.5865 48.9392 73.6644 49.4189 73.8203C49.8987 73.9643 50.2285 74.2221 50.4084 74.594C50.5883 74.9658 50.6783 75.5415 50.6783 76.3211V82.4741H49.1131V81.6465C48.9811 82.3182 48.1056 82.654 46.4864 82.654ZM46.7562 81.5926C47.3439 81.5926 47.8417 81.5506 48.2495 81.4666C48.7892 81.3587 49.0591 81.1068 49.0591 80.711V78.3361H46.5583C46.0426 78.3361 45.6707 78.3781 45.4429 78.4621C45.215 78.534 45.065 78.678 44.9931 78.8939C44.9211 79.1098 44.8851 79.4576 44.8851 79.9374C44.8851 80.3691 44.9271 80.705 45.0111 80.9449C45.095 81.1728 45.245 81.3407 45.4609 81.4486C45.6767 81.5446 46.0006 81.5926 46.4324 81.5926H46.7562ZM57.1387 82.654C56.3951 82.654 55.8133 82.5761 55.3935 82.4201C54.9738 82.2522 54.6679 81.9764 54.476 81.5926C54.2961 81.1967 54.2061 80.645 54.2061 79.9374V74.8279H52.2631V73.7664H54.2061V71.0677H55.8433V73.7664H58.9558V74.8279H55.8433V80.0273C55.8433 80.4591 55.8913 80.7829 55.9873 80.9988C56.0952 81.2147 56.2751 81.3707 56.527 81.4666C56.7909 81.5506 57.1687 81.5926 57.6604 81.5926C57.8164 81.5926 58.2482 81.5446 58.9558 81.4486V82.5101C58.3441 82.6061 57.7384 82.654 57.1387 82.654ZM64.3953 82.654C61.7326 82.654 60.4013 81.7665 60.4013 79.9913V76.555C60.4013 75.4995 60.7011 74.7439 61.3009 74.2881C61.9126 73.8203 62.8961 73.5865 64.2514 73.5865C65.5348 73.5865 66.4583 73.8084 67.0221 74.2521C67.5978 74.6959 67.8856 75.4635 67.8856 76.555V78.4801H62.0385V79.7934C62.0385 80.3931 62.2484 80.8249 62.6682 81.0888C63.088 81.3527 63.7357 81.4846 64.6112 81.4846C65.4388 81.4846 66.4164 81.3407 67.5438 81.0528V82.2942C66.4403 82.5341 65.3909 82.654 64.3953 82.654ZM66.2664 77.4186V76.0513C66.2664 75.5235 66.1045 75.1637 65.7807 74.9718C65.4688 74.7679 64.9291 74.6659 64.1615 74.6659C63.4178 74.6659 62.8781 74.7679 62.5422 74.9718C62.2064 75.1637 62.0385 75.5235 62.0385 76.0513V77.4186H66.2664ZM74.6076 70.7978H76.3528V81.2507H82.092V82.4741H74.6076V70.7978ZM83.8467 70.6179H85.4659V72.3091H83.8467V70.6179ZM83.8467 73.7664H85.4659V82.4741H83.8467V73.7664ZM88.2742 73.7664H89.8934V74.8279C90.0613 74.0003 91.0388 73.5865 92.826 73.5865C94.2772 73.5865 95.1828 73.9823 95.5426 74.7739C95.6506 74.3901 95.9744 74.0962 96.5142 73.8923C97.0659 73.6884 97.7376 73.5865 98.5292 73.5865C99.6086 73.5865 100.37 73.7904 100.814 74.1982C101.258 74.594 101.48 75.2237 101.48 76.0872V82.4741H99.8605V76.1952C99.8605 75.9673 99.8425 75.7814 99.8066 75.6375C99.7706 75.4935 99.6986 75.3496 99.5907 75.2057C99.3508 74.9058 98.817 74.7559 97.9894 74.7559C97.3537 74.7559 96.88 74.7979 96.5681 74.8818C96.2563 74.9658 96.0404 75.1097 95.9204 75.3136C95.8125 75.5175 95.7585 75.8114 95.7585 76.1952V82.4741H94.1393V76.1952C94.1393 75.9673 94.1213 75.7814 94.0853 75.6375C94.0494 75.4935 93.9774 75.3496 93.8694 75.2057C93.6296 74.9058 93.1018 74.7559 92.2862 74.7559C91.6265 74.7559 91.1288 74.7979 90.793 74.8818C90.4571 74.9658 90.2232 75.1097 90.0913 75.3136C89.9594 75.5055 89.8934 75.7994 89.8934 76.1952V82.4741H88.2742V73.7664ZM104.28 70.6179H105.899V72.3091H104.28V70.6179ZM104.28 73.7664H105.899V82.4741H104.28V73.7664ZM112.36 82.654C111.616 82.654 111.034 82.5761 110.615 82.4201C110.195 82.2522 109.889 81.9764 109.697 81.5926C109.517 81.1967 109.427 80.645 109.427 79.9374V74.8279H107.484V73.7664H109.427V71.0677H111.064V73.7664H114.177V74.8279H111.064V80.0273C111.064 80.4591 111.112 80.7829 111.208 80.9988C111.316 81.2147 111.496 81.3707 111.748 81.4666C112.012 81.5506 112.39 81.5926 112.882 81.5926C113.037 81.5926 113.469 81.5446 114.177 81.4486V82.5101C113.565 82.6061 112.959 82.654 112.36 82.654ZM119.616 82.654C116.954 82.654 115.622 81.7665 115.622 79.9913V76.555C115.622 75.4995 115.922 74.7439 116.522 74.2881C117.134 73.8203 118.117 73.5865 119.473 73.5865C120.756 73.5865 121.679 73.8084 122.243 74.2521C122.819 74.6959 123.107 75.4635 123.107 76.555V78.4801H117.26V79.7934C117.26 80.3931 117.469 80.8249 117.889 81.0888C118.309 81.3527 118.957 81.4846 119.832 81.4846C120.66 81.4846 121.637 81.3407 122.765 81.0528V82.2942C121.661 82.5341 120.612 82.654 119.616 82.654ZM121.488 77.4186V76.0513C121.488 75.5235 121.326 75.1637 121.002 74.9718C120.69 74.7679 120.15 74.6659 119.383 74.6659C118.639 74.6659 118.099 74.7679 117.763 74.9718C117.427 75.1637 117.26 75.5235 117.26 76.0513V77.4186H121.488ZM128.687 82.654C127.823 82.654 127.146 82.5701 126.654 82.4022C126.162 82.2222 125.802 81.9344 125.574 81.5386C125.358 81.1428 125.25 80.591 125.25 79.8834V76.0513C125.25 75.1757 125.52 74.546 126.06 74.1622C126.612 73.7784 127.517 73.5865 128.777 73.5865C129.532 73.5865 130.18 73.6824 130.72 73.8743C131.272 74.0662 131.553 74.3421 131.565 74.7019H131.601L131.565 72.489V69.8803H133.185V82.4741H131.601V81.4486C131.601 81.7725 131.344 82.0483 130.828 82.2762C130.312 82.5281 129.598 82.654 128.687 82.654ZM129.029 81.5386C129.928 81.5386 130.576 81.4366 130.972 81.2327C131.368 81.0288 131.565 80.681 131.565 80.1892V75.8893C131.565 75.1097 130.768 74.7199 129.173 74.7199C128.213 74.7199 127.589 74.7919 127.301 74.9358C127.002 75.0797 126.852 75.3976 126.852 75.8893V80.1892C126.852 80.681 127.014 81.0288 127.337 81.2327C127.673 81.4366 128.237 81.5386 129.029 81.5386Z" fill="white"/>
<defs>
<linearGradient id="paint0_linear_1_102" x1="74.0003" y1="42" x2="74.0003" y2="-2.82229e-06" gradientUnits="userSpaceOnUse">
<stop stop-color="white"/>
<stop offset="0.585" stop-color="white"/>
</linearGradient>
</defs>
</svg>
