<svg width="144" height="86" viewBox="0 0 144 86" fill="none" xmlns="http://www.w3.org/2000/svg">
<path fill-rule="evenodd" clip-rule="evenodd" d="M51.98 36.3391C52.5042 36.3391 52.957 36.1485 53.3383 35.7672C53.7196 35.3859 53.9102 34.9332 53.9102 34.4089V16.8937C53.9102 16.8699 53.9221 16.858 53.946 16.858C53.9698 16.858 53.9817 16.8699 53.9817 16.8937L64.1691 34.6591C64.8364 35.7791 65.8015 36.3391 67.0645 36.3391C67.5887 36.3391 68.0415 36.1485 68.4228 35.7672C68.8041 35.3859 68.9947 34.9332 68.9947 34.4089V0.662392C68.9947 0.427208 68.9564 0.206411 68.8796 0H127.448V42.0768H78.4715L78.4715 16.759C78.4715 16.7359 78.483 16.7244 78.506 16.7244C78.5291 16.7244 78.5406 16.7359 78.5406 16.759L83.6545 26.9178C84.1844 27.9544 85.0137 28.4727 86.1424 28.4727C87.2712 28.4727 88.1005 27.9544 88.6303 26.9178L93.7442 16.759C93.7442 16.7359 93.7558 16.7244 93.7788 16.7244C93.8018 16.7244 93.8133 16.7359 93.8133 16.759V33.483C93.8133 34.0128 93.9976 34.462 94.3662 34.8306C94.7348 35.1992 95.184 35.3835 95.7138 35.3835C96.2436 35.3835 96.6928 35.1992 97.0614 34.8306C97.43 34.462 97.6143 34.0128 97.6143 33.483V12.0597C97.6143 11.5298 97.43 11.0806 97.0614 10.7121C96.6928 10.3435 96.2436 10.1592 95.7138 10.1592C94.4468 10.1592 93.5254 10.7236 92.9495 11.8523L86.177 24.9828C86.177 25.0058 86.1654 25.0173 86.1424 25.0173C86.1194 25.0173 86.1079 25.0058 86.1079 24.9828L79.3008 11.7832C78.7479 10.7005 77.861 10.1592 76.6401 10.1592C76.1333 10.1592 75.6956 10.3435 75.3271 10.7121C74.9815 11.0576 74.8088 11.4838 74.8088 11.9906L74.8088 42.0768H21.2999V0H65.2493C65.1726 0.206411 65.1342 0.427208 65.1342 0.662392V29.6905C65.1342 29.7144 65.1223 29.7263 65.0985 29.7263C65.0508 29.7263 65.027 29.7144 65.027 29.6905L54.8753 11.9251C54.2081 10.8051 53.243 10.2451 51.98 10.2451C51.4557 10.2451 51.0029 10.4357 50.6217 10.817C50.2404 11.1983 50.0497 11.6511 50.0497 12.1754V34.4089C50.0497 34.9332 50.2404 35.3859 50.6217 35.7672C51.0029 36.1485 51.4557 36.3391 51.98 36.3391ZM39.1503 34.9453C35.7161 34.9453 32.9598 33.8382 30.8812 31.6241C28.8252 29.41 27.7972 26.2808 27.7972 22.2367C27.7972 18.2377 28.7913 15.1198 30.7795 12.8831C32.7903 10.6464 35.5806 9.52804 39.1503 9.52804C40.6866 9.52804 42.0874 9.64101 43.3526 9.86694C43.8045 9.95731 44.1772 10.1945 44.471 10.5786C44.7647 10.9401 44.9115 11.3581 44.9115 11.8325C44.9115 12.2392 44.7421 12.5668 44.4032 12.8153C44.0869 13.0413 43.7367 13.0978 43.3526 12.9848C42.2907 12.7137 41.0029 12.5781 39.4892 12.5781C37.0491 12.5781 35.1174 13.4254 33.694 15.1198C32.2933 16.7917 31.5929 19.164 31.5929 22.2367C31.5929 25.3093 32.3159 27.6929 33.7618 29.3874C35.2078 31.0593 37.1169 31.8952 39.4892 31.8952C40.9803 31.8952 42.3246 31.7484 43.522 31.4547C43.9061 31.3417 44.2563 31.4095 44.5726 31.658C44.9115 31.9065 45.081 32.2341 45.081 32.6408C45.081 33.1152 44.9341 33.5445 44.6404 33.9286C44.3467 34.2901 43.9626 34.516 43.4882 34.6064C42.1552 34.8323 40.7092 34.9453 39.1503 34.9453ZM107.308 22.7178V13.6302C107.308 13.4459 107.412 13.3307 107.619 13.2847C108.609 13.1465 109.658 13.0774 110.763 13.0774C112.836 13.0774 114.403 13.515 115.463 14.3904C116.522 15.2427 117.052 16.4982 117.052 18.1568C117.052 19.8153 116.511 21.0938 115.428 21.9922C114.345 22.8676 112.79 23.3053 110.763 23.3053C109.842 23.3053 108.794 23.2246 107.619 23.0634C107.412 23.0173 107.308 22.9021 107.308 22.7178ZM105.407 35.6064C105.937 35.6064 106.386 35.4221 106.755 35.0535C107.124 34.685 107.308 34.2358 107.308 33.7059V26.4151C107.308 26.2308 107.4 26.1387 107.584 26.1387C108.575 26.2308 109.75 26.2769 111.109 26.2769C117.559 26.2769 120.784 23.455 120.784 17.8112C120.784 15.3233 119.966 13.4114 118.331 12.0753C116.695 10.7162 114.288 10.0366 111.109 10.0366C109.289 10.0366 107.4 10.1288 105.442 10.3131C104.889 10.3591 104.428 10.601 104.06 11.0387C103.691 11.4764 103.507 11.9716 103.507 12.5245V33.7059C103.507 34.2358 103.691 34.685 104.06 35.0535C104.428 35.4221 104.878 35.6064 105.407 35.6064Z" fill="url(#paint0_linear_1_117)"/>
<path d="M7.83098 63.654C4.55658 63.654 2.91937 62.5985 2.91937 60.4876V54.9463C2.91937 52.7154 4.55658 51.5999 7.83098 51.5999C8.94643 51.5999 10.0139 51.7139 11.0334 51.9418V53.2371C9.88198 52.9493 8.82649 52.8053 7.86696 52.8053C7.39919 52.8053 6.99139 52.8353 6.64356 52.8953C6.29573 52.9433 5.95989 53.0332 5.63605 53.1652C4.94039 53.465 4.59256 54.0527 4.59256 54.9283V60.3976C4.59256 61.741 5.70801 62.4126 7.93892 62.4126C8.89846 62.4126 9.95394 62.2687 11.1054 61.9809V63.3122C10.0859 63.5401 8.99441 63.654 7.83098 63.654ZM13.4344 51.7978H15.5394L21.8903 61.4411V51.7978H23.4195V63.4741H21.3146L14.9637 53.6689V63.4741H13.4344V51.7978ZM26.4359 51.7978H29.0446L32.7868 61.5131L32.8407 61.5311L36.385 51.7978H38.9038V63.4741H37.3745V53.5969H37.2846L33.5244 63.4741H31.9592L28.0911 53.5969H28.0011V63.4741H26.4359V51.7978ZM41.9322 51.7978H45.7463C46.2861 51.7978 46.7179 51.8098 47.0417 51.8338C47.3775 51.8578 47.7314 51.9118 48.1032 51.9957C48.487 52.0797 48.7929 52.2056 49.0207 52.3735C49.2606 52.5415 49.4645 52.7693 49.6324 53.0572C49.7884 53.3331 49.8663 53.6809 49.8663 54.1007V56.5295C49.8663 57.501 49.4885 58.2027 48.7329 58.6345C47.9892 59.0543 46.8858 59.2642 45.4225 59.2642H43.6774V63.4741H41.9322V51.7978ZM45.6564 58.1667C46.412 58.1667 47.0177 58.0288 47.4735 57.7529C47.9293 57.477 48.1572 57.0393 48.1572 56.4396V54.3166C48.1572 53.9927 48.0732 53.7289 47.9053 53.525C47.7374 53.3091 47.4975 53.1592 47.1856 53.0752C46.8858 53.0032 46.6339 52.9553 46.43 52.9313C46.2261 52.9073 45.9562 52.8953 45.6204 52.8953H43.6594V58.1667H45.6564ZM56.3392 51.7978H58.0844V63.4741H56.3392V51.7978ZM60.9926 54.7664H62.6118V55.8279C62.7798 55.0003 63.7333 54.5865 65.4724 54.5865C66.5879 54.5865 67.3675 54.7904 67.8113 55.1982C68.2671 55.594 68.495 56.2237 68.495 57.0872V63.4741H66.8758V57.1772C66.8758 56.9493 66.8578 56.7634 66.8218 56.6195C66.7858 56.4755 66.7138 56.3316 66.6059 56.1877C66.366 55.8878 65.8323 55.7379 65.0047 55.7379C64.369 55.7379 63.8772 55.7859 63.5294 55.8818C63.1936 55.9658 62.9537 56.1097 62.8097 56.3136C62.6778 56.5175 62.6118 56.8054 62.6118 57.1772V63.4741H60.9926V54.7664ZM70.0106 54.7664H71.7198L74.1306 62.0708H74.2205L76.5594 54.7664H78.1246L75.0841 63.4741H73.1411L70.0106 54.7664ZM83.3041 63.654C80.6414 63.654 79.3101 62.7665 79.3101 60.9913V57.555C79.3101 56.4995 79.6099 55.7439 80.2096 55.2881C80.8213 54.8203 81.8049 54.5865 83.1602 54.5865C84.4436 54.5865 85.3671 54.8084 85.9308 55.2521C86.5066 55.6959 86.7944 56.4635 86.7944 57.555V59.4801H80.9473V60.7934C80.9473 61.3931 81.1572 61.8249 81.577 62.0888C81.9968 62.3527 82.6445 62.4846 83.52 62.4846C84.3476 62.4846 85.3251 62.3407 86.4526 62.0528V63.2942C85.3491 63.5341 84.2996 63.654 83.3041 63.654ZM85.1752 58.4186V57.0513C85.1752 56.5235 85.0133 56.1637 84.6895 55.9718C84.3776 55.7679 83.8379 55.6659 83.0702 55.6659C82.3266 55.6659 81.7869 55.7679 81.451 55.9718C81.1152 56.1637 80.9473 56.5235 80.9473 57.0513V58.4186H85.1752ZM91.9247 63.654C91.0012 63.654 90.0057 63.5821 88.9382 63.4381V62.1967C90.3415 62.4246 91.349 62.5386 91.9607 62.5386C92.7283 62.5386 93.2801 62.4666 93.6159 62.3227C93.9517 62.1668 94.1197 61.8849 94.1197 61.4771V60.5955C94.1197 60.2237 93.9937 59.9598 93.7418 59.8039C93.49 59.648 93.0822 59.57 92.5184 59.57H91.5289C90.6294 59.57 89.9397 59.3841 89.4599 59.0123C88.9922 58.6405 88.7583 58.1187 88.7583 57.4471V56.6375C88.7583 55.2701 90.0536 54.5865 92.6444 54.5865C92.8363 54.5865 93.7179 54.6344 95.2891 54.7304V55.8998C94.2216 55.7319 93.3161 55.6479 92.5724 55.6479C91.7208 55.6479 91.1391 55.7319 90.8273 55.8998C90.5154 56.0677 90.3595 56.3496 90.3595 56.7454V57.483C90.3595 58.0708 90.8932 58.3646 91.9607 58.3646H92.9682C94.8033 58.3646 95.7209 59.0483 95.7209 60.4156V61.1712C95.7209 62.0708 95.409 62.7125 94.7853 63.0963C94.1616 63.4681 93.2081 63.654 91.9247 63.654ZM101.611 63.654C100.868 63.654 100.286 63.5761 99.866 63.4201C99.4462 63.2522 99.1404 62.9764 98.9485 62.5926C98.7686 62.1967 98.6786 61.645 98.6786 60.9374V55.8279H96.7356V54.7664H98.6786V52.0677H100.316V54.7664H103.428V55.8279H100.316V61.0273C100.316 61.4591 100.364 61.7829 100.46 61.9988C100.568 62.2147 100.748 62.3707 100.999 62.4666C101.263 62.5506 101.641 62.5926 102.133 62.5926C102.289 62.5926 102.721 62.5446 103.428 62.4486V63.5101C102.817 63.6061 102.211 63.654 101.611 63.654ZM105.198 54.7664H106.817V55.8279C106.985 55.0003 107.962 54.5865 109.749 54.5865C111.201 54.5865 112.106 54.9823 112.466 55.7739C112.574 55.3901 112.898 55.0962 113.438 54.8923C113.989 54.6884 114.661 54.5865 115.453 54.5865C116.532 54.5865 117.294 54.7904 117.737 55.1982C118.181 55.594 118.403 56.2237 118.403 57.0872V63.4741H116.784V57.1952C116.784 56.9673 116.766 56.7814 116.73 56.6375C116.694 56.4935 116.622 56.3496 116.514 56.2057C116.274 55.9058 115.74 55.7559 114.913 55.7559C114.277 55.7559 113.803 55.7979 113.492 55.8818C113.18 55.9658 112.964 56.1097 112.844 56.3136C112.736 56.5175 112.682 56.8114 112.682 57.1952V63.4741H111.063V57.1952C111.063 56.9673 111.045 56.7814 111.009 56.6375C110.973 56.4935 110.901 56.3496 110.793 56.2057C110.553 55.9058 110.025 55.7559 109.21 55.7559C108.55 55.7559 108.052 55.7979 107.716 55.8818C107.381 55.9658 107.147 56.1097 107.015 56.3136C106.883 56.5055 106.817 56.7994 106.817 57.1952V63.4741H105.198V54.7664ZM124.874 63.654C122.211 63.654 120.88 62.7665 120.88 60.9913V57.555C120.88 56.4995 121.179 55.7439 121.779 55.2881C122.391 54.8203 123.374 54.5865 124.73 54.5865C126.013 54.5865 126.937 54.8084 127.5 55.2521C128.076 55.6959 128.364 56.4635 128.364 57.555V59.4801H122.517V60.7934C122.517 61.3931 122.727 61.8249 123.147 62.0888C123.566 62.3527 124.214 62.4846 125.09 62.4846C125.917 62.4846 126.895 62.3407 128.022 62.0528V63.2942C126.919 63.5341 125.869 63.654 124.874 63.654ZM126.745 58.4186V57.0513C126.745 56.5235 126.583 56.1637 126.259 55.9718C125.947 55.7679 125.407 55.6659 124.64 55.6659C123.896 55.6659 123.356 55.7679 123.021 55.9718C122.685 56.1637 122.517 56.5235 122.517 57.0513V58.4186H126.745ZM130.832 54.7664H132.451V55.8279C132.619 55.0003 133.572 54.5865 135.311 54.5865C136.427 54.5865 137.206 54.7904 137.65 55.1982C138.106 55.594 138.334 56.2237 138.334 57.0872V63.4741H136.715V57.1772C136.715 56.9493 136.697 56.7634 136.661 56.6195C136.625 56.4755 136.553 56.3316 136.445 56.1877C136.205 55.8878 135.671 55.7379 134.844 55.7379C134.208 55.7379 133.716 55.7859 133.368 55.8818C133.033 55.9658 132.793 56.1097 132.649 56.3136C132.517 56.5175 132.451 56.8054 132.451 57.1772V63.4741H130.832V54.7664ZM144.797 63.654C144.053 63.654 143.472 63.5761 143.052 63.4201C142.632 63.2522 142.326 62.9764 142.134 62.5926C141.954 62.1967 141.865 61.645 141.865 60.9374V55.8279H139.921V54.7664H141.865V52.0677H143.502V54.7664H146.614V55.8279H143.502V61.0273C143.502 61.4591 143.55 61.7829 143.646 61.9988C143.754 62.2147 143.934 62.3707 144.185 62.4666C144.449 62.5506 144.827 62.5926 145.319 62.5926C145.475 62.5926 145.907 62.5446 146.614 62.4486V63.5101C146.003 63.6061 145.397 63.654 144.797 63.654ZM15.2001 70.7978H19.0143C19.554 70.7978 19.9858 70.8098 20.3096 70.8338C20.6455 70.8578 20.9993 70.9118 21.3711 70.9957C21.7549 71.0797 22.0608 71.2056 22.2887 71.3735C22.5286 71.5415 22.7325 71.7693 22.9004 72.0572C23.0563 72.3331 23.1343 72.6809 23.1343 73.1007V75.5295C23.1343 76.501 22.7565 77.2027 22.0008 77.6345C21.2572 78.0543 20.1537 78.2642 18.6904 78.2642H16.9453V82.4741H15.2001V70.7978ZM18.9243 77.1667C19.68 77.1667 20.2857 77.0288 20.7414 76.7529C21.1972 76.477 21.4251 76.0393 21.4251 75.4396V73.3166C21.4251 72.9927 21.3411 72.7289 21.1732 72.525C21.0053 72.3091 20.7654 72.1592 20.4536 72.0752C20.1537 72.0032 19.9018 71.9553 19.6979 71.9313C19.494 71.9073 19.2242 71.8953 18.8883 71.8953H16.9273V77.1667H18.9243ZM25.3528 73.7664H26.8821V75.1877C26.8821 74.9118 27.002 74.6539 27.2419 74.4141C27.4818 74.1622 27.7876 73.9643 28.1594 73.8203C28.5313 73.6644 28.8971 73.5865 29.2569 73.5865H30.0485V74.9718H29.149C28.3813 74.9718 27.8236 75.0737 27.4758 75.2776C27.1399 75.4695 26.972 75.8234 26.972 76.3391V82.4741H25.3528V73.7664ZM31.6603 70.6179H33.2795V72.3091H31.6603V70.6179ZM31.6603 73.7664H33.2795V82.4741H31.6603V73.7664ZM34.7924 73.7664H36.5016L38.9124 81.0708H39.0024L41.3412 73.7664H42.9065L39.866 82.4741H37.9229L34.7924 73.7664ZM47.0965 82.654C46.2689 82.654 45.6272 82.5761 45.1714 82.4201C44.7276 82.2642 44.4038 81.9884 44.1999 81.5926C44.008 81.1967 43.912 80.627 43.912 79.8834C43.912 79.2237 44.002 78.714 44.1819 78.3541C44.3738 77.9823 44.6916 77.7184 45.1354 77.5625C45.5912 77.4066 46.2329 77.3286 47.0605 77.3286H49.6692V75.9433C49.6692 75.6195 49.6032 75.3736 49.4713 75.2057C49.3514 75.0258 49.1415 74.8998 48.8416 74.8279C48.5537 74.7559 48.128 74.7199 47.5642 74.7199C46.6647 74.7199 45.6692 74.7919 44.5777 74.9358V73.7484C45.7651 73.6404 46.8386 73.5865 47.7981 73.5865C48.8056 73.5865 49.5493 73.6644 50.029 73.8203C50.5088 73.9643 50.8386 74.2221 51.0185 74.594C51.1985 74.9658 51.2884 75.5415 51.2884 76.3211V82.4741H49.7232V81.6465C49.5912 82.3182 48.7157 82.654 47.0965 82.654ZM47.3663 81.5926C47.954 81.5926 48.4518 81.5506 48.8596 81.4666C49.3993 81.3587 49.6692 81.1068 49.6692 80.711V78.3361H47.1684C46.6527 78.3361 46.2809 78.3781 46.053 78.4621C45.8251 78.534 45.6752 78.678 45.6032 78.8939C45.5312 79.1098 45.4952 79.4576 45.4952 79.9374C45.4952 80.3691 45.5372 80.705 45.6212 80.9449C45.7051 81.1728 45.8551 81.3407 46.071 81.4486C46.2869 81.5446 46.6107 81.5926 47.0425 81.5926H47.3663ZM57.7488 82.654C57.0052 82.654 56.4235 82.5761 56.0037 82.4201C55.5839 82.2522 55.278 81.9764 55.0861 81.5926C54.9062 81.1967 54.8162 80.645 54.8162 79.9374V74.8279H52.8732V73.7664H54.8162V71.0677H56.4534V73.7664H59.5659V74.8279H56.4534V80.0273C56.4534 80.4591 56.5014 80.7829 56.5974 80.9988C56.7053 81.2147 56.8852 81.3707 57.1371 81.4666C57.401 81.5506 57.7788 81.5926 58.2705 81.5926C58.4265 81.5926 58.8583 81.5446 59.5659 81.4486V82.5101C58.9542 82.6061 58.3485 82.654 57.7488 82.654ZM65.0054 82.654C62.3427 82.654 61.0114 81.7665 61.0114 79.9913V76.555C61.0114 75.4995 61.3113 74.7439 61.911 74.2881C62.5227 73.8203 63.5062 73.5865 64.8615 73.5865C66.1449 73.5865 67.0684 73.8084 67.6322 74.2521C68.2079 74.6959 68.4957 75.4635 68.4957 76.555V78.4801H62.6486V79.7934C62.6486 80.3931 62.8585 80.8249 63.2783 81.0888C63.6981 81.3527 64.3458 81.4846 65.2213 81.4846C66.0489 81.4846 67.0265 81.3407 68.1539 81.0528V82.2942C67.0505 82.5341 66.001 82.654 65.0054 82.654ZM66.8765 77.4186V76.0513C66.8765 75.5235 66.7146 75.1637 66.3908 74.9718C66.0789 74.7679 65.5392 74.6659 64.7716 74.6659C64.0279 74.6659 63.4882 74.7679 63.1524 74.9718C62.8165 75.1637 62.6486 75.5235 62.6486 76.0513V77.4186H66.8765ZM75.2177 70.7978H76.9629V81.2507H82.7021V82.4741H75.2177V70.7978ZM84.4568 70.6179H86.076V72.3091H84.4568V70.6179ZM84.4568 73.7664H86.076V82.4741H84.4568V73.7664ZM88.8843 73.7664H90.5035V74.8279C90.6714 74.0003 91.6489 73.5865 93.4361 73.5865C94.8874 73.5865 95.7929 73.9823 96.1527 74.7739C96.2607 74.3901 96.5845 74.0962 97.1243 73.8923C97.676 73.6884 98.3477 73.5865 99.1393 73.5865C100.219 73.5865 100.98 73.7904 101.424 74.1982C101.868 74.594 102.09 75.2237 102.09 76.0872V82.4741H100.471V76.1952C100.471 75.9673 100.453 75.7814 100.417 75.6375C100.381 75.4935 100.309 75.3496 100.201 75.2057C99.9609 74.9058 99.4271 74.7559 98.5995 74.7559C97.9639 74.7559 97.4901 74.7979 97.1782 74.8818C96.8664 74.9658 96.6505 75.1097 96.5306 75.3136C96.4226 75.5175 96.3686 75.8114 96.3686 76.1952V82.4741H94.7494V76.1952C94.7494 75.9673 94.7314 75.7814 94.6955 75.6375C94.6595 75.4935 94.5875 75.3496 94.4796 75.2057C94.2397 74.9058 93.7119 74.7559 92.8963 74.7559C92.2367 74.7559 91.7389 74.7979 91.4031 74.8818C91.0672 74.9658 90.8333 75.1097 90.7014 75.3136C90.5695 75.5055 90.5035 75.7994 90.5035 76.1952V82.4741H88.8843V73.7664ZM104.89 70.6179H106.509V72.3091H104.89V70.6179ZM104.89 73.7664H106.509V82.4741H104.89V73.7664ZM112.97 82.654C112.226 82.654 111.645 82.5761 111.225 82.4201C110.805 82.2522 110.499 81.9764 110.307 81.5926C110.127 81.1967 110.037 80.645 110.037 79.9374V74.8279H108.094V73.7664H110.037V71.0677H111.675V73.7664H114.787V74.8279H111.675V80.0273C111.675 80.4591 111.722 80.7829 111.818 80.9988C111.926 81.2147 112.106 81.3707 112.358 81.4666C112.622 81.5506 113 81.5926 113.492 81.5926C113.648 81.5926 114.079 81.5446 114.787 81.4486V82.5101C114.175 82.6061 113.57 82.654 112.97 82.654ZM120.227 82.654C117.564 82.654 116.232 81.7665 116.232 79.9913V76.555C116.232 75.4995 116.532 74.7439 117.132 74.2881C117.744 73.8203 118.727 73.5865 120.083 73.5865C121.366 73.5865 122.29 73.8084 122.853 74.2521C123.429 74.6959 123.717 75.4635 123.717 76.555V78.4801H117.87V79.7934C117.87 80.3931 118.08 80.8249 118.499 81.0888C118.919 81.3527 119.567 81.4846 120.442 81.4846C121.27 81.4846 122.248 81.3407 123.375 81.0528V82.2942C122.272 82.5341 121.222 82.654 120.227 82.654ZM122.098 77.4186V76.0513C122.098 75.5235 121.936 75.1637 121.612 74.9718C121.3 74.7679 120.76 74.6659 119.993 74.6659C119.249 74.6659 118.709 74.7679 118.373 74.9718C118.038 75.1637 117.87 75.5235 117.87 76.0513V77.4186H122.098ZM129.297 82.654C128.433 82.654 127.756 82.5701 127.264 82.4022C126.772 82.2222 126.412 81.9344 126.184 81.5386C125.969 81.1428 125.861 80.591 125.861 79.8834V76.0513C125.861 75.1757 126.13 74.546 126.67 74.1622C127.222 73.7784 128.127 73.5865 129.387 73.5865C130.143 73.5865 130.79 73.6824 131.33 73.8743C131.882 74.0662 132.164 74.3421 132.176 74.7019H132.212L132.176 72.489V69.8803H133.795V82.4741H132.212V81.4486C132.212 81.7725 131.954 82.0483 131.438 82.2762C130.922 82.5281 130.208 82.654 129.297 82.654ZM129.639 81.5386C130.538 81.5386 131.186 81.4366 131.582 81.2327C131.978 81.0288 132.176 80.681 132.176 80.1892V75.8893C132.176 75.1097 131.378 74.7199 129.783 74.7199C128.823 74.7199 128.199 74.7919 127.912 74.9358C127.612 75.0797 127.462 75.3976 127.462 75.8893V80.1892C127.462 80.681 127.624 81.0288 127.948 81.2327C128.283 81.4366 128.847 81.5386 129.639 81.5386Z" fill="#102C57"/>
<defs>
<linearGradient id="paint0_linear_1_117" x1="74.6104" y1="42" x2="74.6104" y2="-2.82229e-06" gradientUnits="userSpaceOnUse">
<stop stop-color="#1679AB"/>
<stop offset="0.585" stop-color="#102C57"/>
</linearGradient>
</defs>
</svg>
