<svg width="64" height="57" viewBox="0 0 64 57" fill="none" xmlns="http://www.w3.org/2000/svg">
<path d="M6.36821 50.1334H1.23868C1.23637 50.1334 1.23509 50.132 1.23453 50.1342C1.21426 50.2162 -0.20103 56 4.16807 56C8.56834 56 56.9677 56 59.9012 56C62.8072 56 62.8344 50.2424 62.8346 50.1349C62.8346 50.1321 62.8324 50.1334 62.8296 50.1334H57.7013M6.36821 50.1334V13.4719C6.36821 13.4691 6.37046 13.4669 6.37323 13.4669H35.4622M6.36821 50.1334H57.7013M57.7013 50.1334V13.4719C57.7013 13.4691 57.6991 13.4669 57.6963 13.4669H49.8495M26.9677 17.8668H10.0399C10.0371 17.8668 10.0349 17.8691 10.0349 17.8719V46.4617C10.0349 46.4645 10.0371 46.4667 10.0399 46.4667H54.0296C54.0324 46.4667 54.0347 46.4645 54.0347 46.4617V17.8719C54.0347 17.8691 54.0324 17.8668 54.0296 17.8668H51.1991M29.9214 17.8668L34.5395 17.8764M28.3681 23.7335C30.5681 23.7335 32.7681 25.2001 32.7681 27.4001C32.7681 29.6001 30.7882 32.0201 28.3681 31.8001C26.1406 31.5976 24.499 29.6277 24.7015 27.4001C24.8848 25.3834 26.1681 23.7335 28.3681 23.7335ZM43.0347 7.60021C40.6147 7.3802 38.6347 9.57015 38.6347 12.0002C38.6347 14.4302 40.6147 16.6202 43.0347 16.4002C45.2623 16.1977 46.7014 14.2369 46.7014 12.0002C46.7014 9.76347 45.2623 7.80271 43.0347 7.60021ZM35.7014 27.4001C35.8495 25.224 38.9144 24.1982 37.9014 22.2666C36.8291 20.2218 33.5014 22.9999 32.0348 21.5332C30.5681 20.0666 30.6048 17.1333 28.3681 17.1333C26.1314 17.1333 26.6574 20.4482 24.7015 21.5332C22.6824 22.6533 20.0702 20.316 18.8348 22.2666C17.4643 24.4306 21.7882 25.5718 21.7681 28.1332C21.7511 30.3142 18.5553 31.3349 19.5681 33.2665C20.6404 35.3114 23.5023 32.7363 25.4348 33.9999C27.1632 35.13 26.3147 38.1798 28.3681 38.3998C30.5921 38.6381 30.0701 35.069 32.0348 33.9999C33.9419 32.962 36.2725 35.0251 37.546 33.2665C38.9546 31.3214 35.5384 29.7961 35.7014 27.4001ZM43.0347 22.9999C45.3507 22.8732 44.7191 19.5319 46.7014 18.3275C48.4603 17.2587 51.0415 19.0325 51.8347 17.1333C52.5751 15.3605 49.8358 14.6438 49.6347 12.7333C49.3785 10.2999 53.3192 8.81172 51.8347 6.86664C50.6061 5.25688 48.4742 7.11205 46.7014 6.13331C44.5447 4.94263 45.4983 1 43.0347 1C40.5712 1 41.5792 5.04712 39.3681 6.13331C37.3117 7.14345 35.0496 4.44444 33.5014 6.13331C31.6656 8.13606 36.0856 10.0437 35.7014 12.7333C35.4297 14.6351 32.7314 15.3732 33.5014 17.1333C34.4197 19.2322 37.3157 16.115 39.3681 17.1333C41.7883 18.334 40.337 23.1475 43.0347 22.9999Z" stroke="#102C57" stroke-width="2"/>
</svg>
