<svg width="32" height="38" viewBox="0 0 32 38" fill="none" xmlns="http://www.w3.org/2000/svg">
<path d="M6.08933 18.7422H26.1558M26.1558 21.7958H6.08933M6.08933 24.704H26.1558M15.1047 29.7934L16.3912 31.0799C16.404 31.0927 16.4242 31.0943 16.4389 31.0838L21.5027 27.4668M18.5945 28.6301C18.5945 28.6301 17.8675 27.176 16.268 27.176C14.6685 27.176 13.3197 28.5833 13.3598 30.2296C13.399 31.8353 14.6673 33.2702 16.268 33.1378C17.6692 33.0218 18.7042 31.9259 18.74 30.5204M16.268 1.00229C17.232 0.936932 18.3194 2.2904 18.4384 2.44254C18.4455 2.45165 18.4559 2.45639 18.4675 2.45639H20.8841C20.9045 2.45639 20.9211 2.47297 20.9211 2.49342V8.52655C20.9211 8.547 20.9045 8.56358 20.8841 8.56358H11.7973C11.7769 8.56358 11.7603 8.547 11.7603 8.52655V2.49342C11.7603 2.47297 11.7769 2.45639 11.7973 2.45639H14.3582C14.3704 2.45639 14.3818 2.45046 14.3888 2.44055C14.4985 2.28664 15.3972 1.06133 16.268 1.00229ZM9.68753 3.18343H1.03704C1.01658 3.18343 1 3.20001 1 3.22047V37.463C1 37.4835 1.01658 37.5001 1.03704 37.5001H31.3535C31.374 37.5001 31.3906 37.4835 31.3906 37.463V3.22047C31.3906 3.20002 31.374 3.18343 31.3535 3.18343H22.9939C22.9734 3.18343 22.9568 3.20002 22.9568 3.22047V5.47295C22.9568 5.4934 22.9734 5.50998 22.9939 5.50998H29.1724C29.1929 5.50998 29.2094 5.52657 29.2094 5.54702V35.2819C29.2094 35.3023 29.1929 35.3189 29.1724 35.3189H3.07277C3.05231 35.3189 3.03573 35.3023 3.03573 35.2819V5.54702C3.03573 5.52657 3.05231 5.50998 3.07277 5.50998H9.68753C9.70799 5.50998 9.72457 5.4934 9.72457 5.47295V3.22047C9.72457 3.20002 9.70799 3.18343 9.68753 3.18343Z" stroke="white" stroke-width="0.581638" stroke-linecap="round" stroke-linejoin="round"/>
</svg>
