<svg width="30" height="40" viewBox="0 0 30 40" fill="none" xmlns="http://www.w3.org/2000/svg">
<path d="M14.7164 21.1166C15.6823 21.1112 16.8639 22.3438 16.8639 22.3438M14.7164 21.1166C13.361 21.1243 12.2185 22.2161 12.2622 23.5709C12.3045 24.884 13.6427 25.4116 14.7164 25.8718C15.7902 26.3319 16.9063 26.9443 16.8639 28.1726C16.8231 29.3579 15.8972 30.2085 14.7164 30.3201M14.7164 21.1166V17.742M14.7164 30.3201C13.5912 30.4265 12.6597 29.8442 12.2622 28.7862M14.7164 30.3201V33.5413M10.0046 13.7538C11.4655 13.1698 13.0502 12.8427 14.7164 12.8335C16.3371 12.8245 17.8843 13.119 19.3183 13.6603M10.0046 13.7538C4.27638 16.0435 0.450271 22.2817 1.06461 28.7862C1.32113 31.5022 1.62629 33.2802 3.36548 35.382C6.11989 38.7107 14.7164 38.6032 13.9495 38.6032H14.7164C14.7496 38.6048 23.29 39.0005 26.2208 35.382C27.9378 33.2621 28.2655 31.5022 28.5217 28.7862C29.1432 22.1973 25.1743 15.8708 19.3183 13.6603M10.0046 13.7538C10.0046 13.7538 8.61277 12.5091 8.58089 11.4529C8.53226 9.84182 9.34785 8.69195 11.6487 8.69187C11.9635 8.69186 12.2696 8.69185 12.5691 8.69184M19.3183 13.6603C19.3183 13.6603 20.5241 12.439 20.5454 11.4529C20.5774 9.97013 20.0852 8.692 17.9378 8.69187C17.7443 8.69186 17.5533 8.69185 17.3643 8.69184M12.5691 8.69184L8.58758 2.41343C8.58412 2.40797 8.58671 2.40065 8.59274 2.39834C13.3916 0.56303 16.0061 0.504704 20.5351 2.39857C20.5406 2.40086 20.5431 2.40738 20.5405 2.41268L17.3643 8.69184M12.5691 8.69184C14.2617 8.69179 15.7419 8.69177 17.3643 8.69184" stroke="white" stroke-width="1.8407" stroke-linecap="round" stroke-linejoin="round"/>
</svg>
