<svg width="38" height="36" viewBox="0 0 38 36" fill="none" xmlns="http://www.w3.org/2000/svg">
<path d="M37.1139 34.9643H34.821M10.4584 31.0949V34.9643M10.4584 31.0949H2.71971M10.4584 31.0949V26.0791M10.4584 34.9643H1.28662C1.12832 34.9643 1 34.836 1 34.6777V31.3816C1 31.2233 1.12832 31.0949 1.28662 31.0949H2.71971M10.4584 34.9643H18.1971M18.1971 34.9643V16.3341C18.1971 16.1758 18.0688 16.0475 17.9105 16.0475H14.3278M18.1971 34.9643H22.568M14.3278 16.0475H10.745C10.5867 16.0475 10.4584 16.1758 10.4584 16.3341V16.4774M14.3278 16.0475V11.0316M26.939 34.9643H34.821M26.939 34.9643H22.568M26.939 34.9643V31.2382M26.939 10.6017V6.77554C26.939 6.66216 26.8721 6.55944 26.7685 6.5135L22.568 4.65194M26.939 10.6017H34.5344C34.6927 10.6017 34.821 10.73 34.821 10.8883V34.9643M26.939 10.6017V14.1844M22.568 34.9643V4.65194M22.568 4.65194L14.7305 1.17849C14.541 1.09451 14.3278 1.23325 14.3278 1.44053V5.15597M26.939 14.1844H31.3816C31.5399 14.1844 31.6682 14.3128 31.6682 14.4711V16.1908C31.6682 16.3491 31.5399 16.4774 31.3816 16.4774H26.939M26.939 14.1844V16.4774M26.939 16.4774V19.3436M26.939 19.3436H31.3816C31.5399 19.3436 31.6682 19.4719 31.6682 19.6302V21.3499C31.6682 21.5082 31.5399 21.6365 31.3816 21.6365H26.939M26.939 19.3436V21.6365M26.939 21.6365V23.9295M26.939 23.9295H31.3816C31.5399 23.9295 31.6682 24.0578 31.6682 24.2161V26.0791C31.6682 26.2374 31.5399 26.3657 31.3816 26.3657H26.939M26.939 23.9295V26.3657M26.939 26.3657V28.802M26.939 28.802H31.3816C31.5399 28.802 31.6682 28.9303 31.6682 29.0886V30.9516C31.6682 31.1099 31.5399 31.2382 31.3816 31.2382H26.939M26.939 28.802V31.2382M2.71971 31.0949V26.0791M14.3278 8.02215H5.87251M14.3278 8.02215V5.15597M14.3278 8.02215V11.0316M5.87251 8.02215H3.00633C2.84803 8.02215 2.71971 8.15048 2.71971 8.30877V11.0316M5.87251 8.02215V5.44259C5.87251 5.28429 6.00084 5.15597 6.15913 5.15597H10.1001M14.3278 5.15597H10.1001M10.1001 5.15597V1.71655M2.71971 11.0316H14.3278M2.71971 11.0316V21.0633M3.14964 16.4774H10.4584M10.4584 16.4774V21.0633M2.71971 21.0633H10.4584M2.71971 21.0633V26.0791M10.4584 21.0633V26.0791M2.71971 26.0791H10.4584M13.038 17.9105V19.7735M15.6175 17.9105V19.7735M15.6175 21.6365V23.9295M13.038 21.6365V23.9295M13.038 26.0791V28.0854M15.6175 26.0791V28.0854M15.6175 29.9485V32.0981M13.038 29.9485V32.0981" stroke="white" stroke-width="0.859855" stroke-linecap="round" stroke-linejoin="round"/>
</svg>
