<svg width="59" height="55" viewBox="0 0 59 55" fill="none" xmlns="http://www.w3.org/2000/svg">
<path d="M7.25565 44.4185L10.7288 48.8853C10.73 48.8869 10.7322 48.8871 10.7337 48.8858L21.1571 39.9491M44.7895 26.5727C44.3325 26.541 43.8688 26.5299 43.3994 26.5404C41.6666 26.5792 40.0318 26.9006 38.5339 27.4552M44.7895 26.5727C52.1773 27.0847 57.8194 32.977 57.9959 39.9491C58.1878 47.5308 51.6525 54.1808 43.3994 53.9963C42.4414 53.9748 41.5123 53.865 40.6191 53.6755M44.7895 26.5727V24.6248M44.7895 24.6248H42.0092M44.7895 24.6248H46.8747C46.8747 24.6248 46.8747 24.6248 46.8747 24.6248C46.8747 24.6248 48.2649 24.6248 48.2649 22.7093C48.2649 20.7937 46.8747 20.7937 46.8747 20.7937C46.8747 20.7937 46.8747 20.7937 46.8747 20.7937H39.924C39.924 20.7937 39.924 20.7937 39.924 20.7937C39.924 20.7937 38.5339 20.7937 38.5339 22.7093C38.5339 24.6248 39.924 24.6248 39.924 24.6248C39.924 24.6248 39.924 24.6248 39.924 24.6248H42.0092M42.0092 24.6248V26.5404M40.6191 53.6755C33.9891 52.2696 29.333 46.4809 29.4979 39.9491C29.6403 34.3116 33.2287 29.4198 38.5339 27.4552M40.6191 53.6755H1.00343C1.00154 53.6755 1 53.674 1 53.6721V1.00343C1 1.00154 1.00153 1 1.00343 1H38.5304C38.5323 1 38.5339 1.00153 38.5339 1.00343V27.4552M5.8655 6.10806H33.6684M5.8655 10.5776H15.5965M19 10.5776L26.7177 10.5776M5.8655 18.8782L26.7177 18.8782M29.4979 18.8782H33.6684M14.9014 23.3478H5.8655M5.8655 31.6484H26.0226M24.6324 35.4794H16.2916M13.5 35.4794L5.8655 35.4794M43.3994 31.0099V33.5639M48.9599 32.2869L46.8747 34.2024M52.4353 35.4794L49.655 37.3949M50.3501 39.9491L53.8254 39.949M49.655 43.1415L51.7402 45.057M46.8747 45.057L48.9599 48.2496M43.3994 49.5266V46.334M38.5339 47.6111L40.6191 45.057M35.0585 45.057L37.8388 43.1415M33.6684 39.949L36.4487 39.9491M35.0585 35.4794L37.1437 36.7564M38.5339 32.2869L39.924 34.2024M44.7895 39.9491C44.9814 40.8307 44.378 41.8645 43.3994 41.8645C42.4207 41.8645 41.8174 40.8307 42.0092 39.9491C42.1598 39.2575 42.6316 38.6719 43.3994 38.6719C43.7858 38.6719 44.0973 38.8203 44.3305 39.0558M44.7895 39.9491C44.7148 39.6055 44.5607 39.2882 44.3305 39.0558M44.7895 39.9491L44.3305 39.0558M44.3305 39.0558L46.8747 36.1179M43.3994 29.0943C37.0654 29.2707 32.2782 34.1278 32.2782 39.9491C32.2783 45.7702 37.0654 50.6273 43.3994 50.8036C49.9223 50.9852 55.2155 45.9439 55.2156 39.9491C55.2157 33.9542 49.9223 28.9128 43.3994 29.0943Z" stroke="#102C57" stroke-width="2" stroke-linecap="round" stroke-linejoin="round"/>
</svg>
