<svg width="54" height="61" viewBox="0 0 54 61" fill="none" xmlns="http://www.w3.org/2000/svg">
<path d="M36.6466 42.564C51.2454 45.3447 52.7147 59.1816 52.7318 59.3476C52.7322 59.3517 52.7283 59.3491 52.7242 59.3491H27.5543M36.6466 42.564L32.8581 49.5578M36.6466 42.564C37.1135 40.598 36.6376 39.3992 34.5484 37.312M27.5543 59.3491H2.37732C2.37688 59.3491 2.37634 59.3491 2.37591 59.3492C0.568179 59.6906 5.17631 42.564 18.4624 42.564M27.5543 59.3491L32.8581 49.5578M27.5543 59.3491L22.2507 49.5578M18.4624 42.564C18.3977 40.4507 18.4506 39.2904 20.5609 37.6537M18.4624 42.564L22.2507 49.5578M16.3646 18.7851C16.3646 18.7851 15.6652 6.89565 27.5543 6.89565C39.4434 6.89565 39.4441 18.7851 39.4441 18.7851M16.3646 18.7851C19.7232 14.3276 21.5265 13.6456 24.7525 13.1907C24.7553 13.1903 24.7581 13.1917 24.7596 13.1941C27.9185 18.3511 31.3953 20.0799 39.5501 20.8832M16.3646 18.7851H11.4689M16.3646 18.7851C16.3646 18.7851 15.7585 23.1793 16.5211 27.877M39.4441 18.7851C39.4441 18.7851 39.5275 19.5917 39.5501 20.8832M39.4441 18.7851H43.9779M21.2602 37.1452C22.8409 38.3334 24.894 39.0671 27.5543 39.0671C30.3597 39.0671 32.518 38.2512 34.176 36.9468M21.2602 37.1452C21.0051 37.3204 20.7726 37.4895 20.5609 37.6537M21.2602 37.1452C18.3984 34.9938 17.0852 31.3524 16.5211 27.877M34.176 36.9468C34.3054 37.0716 34.4296 37.1933 34.5484 37.312M34.176 36.9468C36.9368 34.7746 38.3103 31.2477 38.9738 27.877M20.5609 37.6537L32.8581 49.5578M22.2507 49.5578L34.5484 37.312M39.5501 20.8832C39.5803 22.6062 39.5023 25.192 38.9738 27.877M11.4689 18.7851C11.4689 18.7851 11.4689 2 27.5543 2C43.6397 2 43.9779 18.7851 43.9779 18.7851M11.4689 18.7851V27.87C11.4689 27.8739 11.4721 27.877 11.476 27.877H12.8677M43.9779 18.7851V27.87C43.9779 27.8739 43.9748 27.877 43.9709 27.877H38.9738M16.5211 27.877H12.8677M12.8677 27.877C12.8677 32.0733 12.8677 32.7727 22.659 32.7727M22.659 32.7727C22.659 32.7727 21.9596 30.6745 24.0578 30.6745C26.1559 30.6745 28.254 30.6745 28.9534 30.6745C29.6528 30.6745 30.3522 31.7879 30.3522 32.7727C30.3522 33.7574 30.3522 34.8708 28.9534 34.8708C27.5547 34.8708 26.1559 34.8708 24.0578 34.8708C21.9596 34.8708 22.659 32.7727 22.659 32.7727Z" stroke="#102C57" stroke-width="2.09814"/>
</svg>
