<svg width="35" height="32" viewBox="0 0 35 32" fill="none" xmlns="http://www.w3.org/2000/svg">
<path d="M19.2556 24.5471H2.58744M19.2556 27.3251C19.2556 27.3251 4.17489 27.3251 2.58744 27.3251C1.01683 27.3251 1.00018 24.6057 1 24.548C0.999997 24.5465 1.00121 24.5471 1.0027 24.5471H2.58744M19.2556 27.3251V30.4973C19.2556 30.4988 19.2568 30.5 19.2583 30.5H29.9681C29.9696 30.5 29.9709 30.4988 29.9709 30.4973V27.3251M19.2556 27.3251V19.6525M29.9709 24.5471V13.0408C29.9709 13.0393 29.9696 13.0381 29.9681 13.0381H24.4148M29.9709 24.5471V27.3251M29.9709 24.5471H32.6166M29.9709 27.3251C29.9709 27.3251 31.426 27.3251 32.6166 27.3251C33.7934 27.3251 34.0655 24.6112 34.0716 24.5482C34.0718 24.5466 34.0704 24.5471 34.0688 24.5471H32.6166M2.58744 24.5471V19.6525M2.58744 19.6525H19.2556M2.58744 19.6525H1.0027C1.00121 19.6525 1 19.6513 1 19.6498V1.0027C1 1.00121 1.00121 1 1.0027 1H24.4121C24.4136 1 24.4148 1.00121 24.4148 1.0027V5.23318M19.2556 19.6525V17.9327M24.4148 13.0381V5.23318M24.4148 13.0381H22.5628M24.4148 5.23318H32.6139C32.6154 5.23318 32.6166 5.23439 32.6166 5.23589V24.5471M19.2556 17.9327V13.0408C19.2556 13.0393 19.2568 13.0381 19.2583 13.0381H22.5628M19.2556 17.9327H2.59015C2.58865 17.9327 2.58744 17.9315 2.58744 17.93V2.98701C2.58744 2.98551 2.58865 2.9843 2.59015 2.9843H22.5601C22.5616 2.9843 22.5628 2.98552 22.5628 2.98701V13.0381M26.2668 14.6256H23.4888M10.657 9.99552L12.5069 11.7133C12.508 11.7144 12.5098 11.7142 12.5108 11.7131L15.1547 8.54036M23.4888 21.5045L24.4128 22.8245C24.4138 22.826 24.4159 22.8261 24.4171 22.8248L26.2668 20.7108M12.9058 5.76233C10.3477 5.76233 8.33501 7.96756 8.40807 10.5247C8.47902 13.0077 10.4218 15.0224 12.9058 15.0224C15.3899 15.0224 17.3326 13.0077 17.4036 10.5247C17.4766 7.96756 15.464 5.76233 12.9058 5.76233ZM24.8117 18.1973C22.839 18.1973 21.2399 19.7964 21.2399 21.7691C21.2399 23.7417 22.839 25.3408 24.8117 25.3408C26.7843 25.3408 28.3834 23.7417 28.3834 21.7691C28.3834 19.7964 26.7843 18.1973 24.8117 18.1973Z" stroke="white" stroke-width="1.0583" stroke-linecap="round" stroke-linejoin="round"/>
</svg>
