<svg width="56" height="56" viewBox="0 0 56 56" fill="none" xmlns="http://www.w3.org/2000/svg">
<path d="M11.5723 13.0979C11.5723 17.9886 28.3623 33.2933 28.379 33.3086C28.3794 33.309 28.3786 33.309 28.379 33.3086C28.3958 33.2935 44.973 18.4138 44.973 13.0979C44.973 7.77934 41.4286 2.19965 35.825 2.03525C32.3038 1.93194 27.7587 6.06106 27.7408 6.07733C27.7404 6.07775 27.7412 6.07777 27.7407 6.07732C27.724 6.0599 24.1438 2.3423 21.1457 2.03525C15.4621 1.45315 11.5723 8.20483 11.5723 13.0979Z" stroke="#102C57" stroke-width="2.55292" stroke-linecap="round" stroke-linejoin="round"/>
<path d="M33.9116 49.2645H31.7853C31.7846 49.2645 31.7841 49.265 31.7841 49.2656V54.5819C31.7841 54.5826 31.7846 54.5831 31.7853 54.5831H46.2495C46.2502 54.5831 46.2507 54.5826 46.2507 54.5819V49.2656C46.2507 49.265 46.2502 49.2645 46.2495 49.2645H44.7615M33.9116 49.2645C31.587 42.8367 32.6351 38.4146 39.4427 35.2235C39.4428 35.2234 39.4429 35.2233 39.443 35.2232L43.9104 30.5431C43.9105 30.5431 43.9104 30.5431 43.9105 30.543C43.9128 30.5415 45.8261 29.2673 47.3144 30.543C48.8036 31.8195 48.1654 33.5214 48.1654 33.5214M33.9116 49.2645H44.7615M48.1654 33.5214L43.9105 38.84M48.1654 33.5214L49.4416 31.8198C49.4418 31.8196 49.4418 31.8194 49.4418 31.8191V19.906C49.4418 19.9059 49.4418 19.9059 49.4418 19.9059C49.4422 19.9036 49.8683 17.5657 51.9948 17.5657C54.1222 17.5657 54.1222 19.9059 54.1222 19.9059C54.1222 19.9059 54.1222 19.9059 54.1222 19.9059V31.8195C53.6375 36.2761 52.406 38.6148 48.1654 42.4567C45.2336 45.1119 44.7488 46.6273 44.7615 49.2645M22.6361 49.2645H24.9752C24.9758 49.2645 24.9763 49.265 24.9763 49.2656V54.5819C24.9763 54.5826 24.9758 54.5831 24.9752 54.5831H10.2982C10.2975 54.5831 10.297 54.5826 10.297 54.5819V49.2656C10.297 49.265 10.2975 49.2645 10.2982 49.2645H12.8499M22.6361 49.2645C24.9763 42.4567 22.9714 37.8316 17.9559 35.2235C17.9558 35.2234 17.9557 35.2234 17.9557 35.2233L12.85 30.5431C12.85 30.5431 12.85 30.5431 12.8499 30.543C12.8484 30.5409 11.7848 29.0544 9.87152 29.9048C7.95682 30.7558 9.02054 33.5214 9.02054 33.5214M22.6361 49.2645H12.8499M9.02054 33.5214L12.8499 37.9891M9.02054 33.5214L7.31881 31.1816C7.31867 31.1814 7.31859 31.1811 7.31859 31.1809V19.9059C7.31859 19.9059 7.31859 19.9059 7.31859 19.9059C7.31849 19.9047 7.10528 17.5657 4.76567 17.5657C2.42754 17.5657 2.00075 19.2646 2 19.2676C1.99998 19.2677 2 19.2677 2 19.2678V31.8195C2.44276 36.2083 3.45103 38.402 7.31859 41.6057C10.6681 44.3988 11.7323 46.102 12.8499 49.2645" stroke="#102C57" stroke-width="2.55292" stroke-linecap="round" stroke-linejoin="round"/>
</svg>
