<svg width="70" height="58" viewBox="0 0 70 58" fill="none" xmlns="http://www.w3.org/2000/svg">
<path d="M2 38.7434C1.30964 38.7434 0.75 39.3031 0.75 39.9934C0.75 40.6838 1.30964 41.2434 2 41.2434V38.7434ZM18.7719 40.8773C19.26 40.3891 19.26 39.5977 18.7719 39.1095L10.8169 31.1546C10.3288 30.6664 9.53732 30.6664 9.04917 31.1546C8.56101 31.6427 8.56101 32.4342 9.04917 32.9223L16.1202 39.9934L9.04917 47.0645C8.56101 47.5526 8.56101 48.3441 9.04917 48.8322C9.53732 49.3204 10.3288 49.3204 10.8169 48.8322L18.7719 40.8773ZM2 41.2434H17.888V38.7434H2V41.2434Z" fill="#102C57"/>
<path d="M37.8418 2C37.8418 1.30964 37.2822 0.75 36.5918 0.75C35.9014 0.75 35.3418 1.30964 35.3418 2H37.8418ZM35.7079 18.7719C36.1961 19.26 36.9875 19.26 37.4757 18.7719L45.4306 10.8169C45.9188 10.3288 45.9188 9.53732 45.4306 9.04917C44.9425 8.56101 44.151 8.56101 43.6629 9.04917L36.5918 16.1202L29.5207 9.04917C29.0326 8.56101 28.2411 8.56101 27.753 9.04917C27.2648 9.53732 27.2648 10.3288 27.753 10.8169L35.7079 18.7719ZM35.3418 2V17.888H37.8418V2H35.3418Z" fill="#102C57"/>
<path d="M68.6406 41.2434C69.331 41.2434 69.8906 40.6838 69.8906 39.9934C69.8906 39.3031 69.331 38.7434 68.6406 38.7434V41.2434ZM51.8687 39.1095C51.3806 39.5977 51.3806 40.3891 51.8687 40.8773L59.8237 48.8322C60.3118 49.3204 61.1033 49.3204 61.5915 48.8322C62.0796 48.3441 62.0796 47.5526 61.5915 47.0645L54.5204 39.9934L61.5915 32.9223C62.0796 32.4342 62.0796 31.6427 61.5915 31.1546C61.1033 30.6664 60.3118 30.6664 59.8237 31.1546L51.8687 39.1095ZM68.6406 38.7434H52.7526V41.2434H68.6406V38.7434Z" fill="#102C57"/>
<path d="M8.93727 15.4239C8.36494 15.0379 7.58803 15.1889 7.20198 15.7612C6.81594 16.3335 6.96696 17.1105 7.53929 17.4965L8.93727 15.4239ZM21.6485 26.5717C22.3262 26.44 22.7688 25.7838 22.6371 25.1062L20.4905 14.0628C20.3587 13.3852 19.7026 12.9426 19.0249 13.0743C18.3472 13.2061 17.9047 13.8622 18.0364 14.5399L19.9445 24.3561L10.1282 26.2642C9.45054 26.396 9.00797 27.0521 9.13969 27.7298C9.27142 28.4074 9.92757 28.85 10.6052 28.7183L21.6485 26.5717ZM7.53929 17.4965L20.711 26.381L22.109 24.3084L8.93727 15.4239L7.53929 17.4965Z" fill="#102C57"/>
<path d="M65.9657 17.5746C66.5753 17.2505 66.8067 16.4937 66.4826 15.8841C66.1585 15.2746 65.4016 15.0432 64.7921 15.3673L65.9657 17.5746ZM50.1552 23.5644C49.9534 24.2246 50.325 24.9235 50.9852 25.1253L61.7436 28.4145C62.4038 28.6163 63.1026 28.2448 63.3044 27.5846C63.5063 26.9244 63.1347 26.2256 62.4745 26.0237L52.9115 23.1L55.8352 13.5369C56.037 12.8768 55.6655 12.1779 55.0053 11.9761C54.3451 11.7743 53.6463 12.1458 53.4444 12.806L50.1552 23.5644ZM64.7921 15.3673L50.7638 22.8262L51.9375 25.0336L65.9657 17.5746L64.7921 15.3673Z" fill="#102C57"/>
<path d="M36.3072 37.7326C26.2418 37.7326 22.4143 47.3728 22.4141 51.2005C22.4138 55.0282 24.5405 55.737 26.8088 55.737C29.0771 55.737 45.2853 55.925 47.0815 55.737C48.8777 55.5491 50.3421 55.737 50.3421 51.2005C50.3421 46.664 46.3727 37.7326 36.3072 37.7326ZM36.3072 37.7326C32.155 37.6747 28.8808 34.6386 28.51 30.5025C28.1041 25.9735 31.7643 22.0521 36.3072 21.8548C41.0398 21.6492 45.235 25.7843 44.8132 30.5025C44.425 34.8449 40.6554 38.0491 36.3072 37.7326Z" stroke="#102C57" stroke-width="2.5" stroke-linecap="round" stroke-linejoin="round"/>
</svg>
