<svg width="71" height="83" viewBox="0 0 71 83" fill="none" xmlns="http://www.w3.org/2000/svg">
<path d="M24.5198 74.5H62.8108C62.9212 74.5 63.0108 74.4105 63.0108 74.3V68.5M13.5108 57C13.5108 38.5391 13.5108 10.1936 13.5108 7.67959C13.5108 7.56913 13.6003 7.5 13.7108 7.5H19.0078M13.5108 57C20.4143 57.2761 25.7869 63.0964 25.5108 70C25.2459 76.6221 20.1368 81.8648 13.5108 82C6.74527 82.1381 1.28144 76.7615 1.01076 70C0.72904 62.9627 6.00781 57 13.5108 57ZM19.0078 7.5H62.8108C62.9212 7.5 63.0108 7.58954 63.0108 7.7V68.5M19.0078 7.5V1.2C19.0078 1.08954 19.0974 1 19.2078 1H69.3078C69.4183 1 69.5078 1.08954 69.5078 1.2V68.3C69.5078 68.4105 69.4183 68.5 69.3078 68.5H63.0108M20.0078 50.5H36.0078M20.0078 45H56.5078M20.0078 39H49.0078M20.0078 33.5H49.0078M20.0078 28.5L49.0078 29M21.0078 13.5V23.3C21.0078 23.4105 21.0974 23.5 21.2078 23.5H25.0078M40.0078 23.5L41.0078 20.6429M47.0078 23.5L46.0078 20.6429M50.5078 23.5V14.2221C50.5078 14.0192 50.7749 13.9452 50.8793 14.1192L56.1363 22.8808C56.2407 23.0548 56.5078 22.9808 56.5078 22.7779V13.5M38.0078 56H35.1319C34.9373 56 34.8573 56.2497 35.0157 56.3627L37.8 58.3516C37.9057 58.4271 37.9125 58.5817 37.8139 58.6662L34.9183 61.1481C34.7773 61.269 34.8628 61.5 35.0485 61.5H38.0078M38.0078 56C38.0078 56 39.5078 49.5 46.0078 49.5C52.5078 49.5 54.0078 56 54.0078 56M38.0078 56H54.0078M54.0078 56H57.236C57.4424 56 57.5135 56.2746 57.3331 56.3748L53.7945 58.3407C53.6637 58.4134 53.6561 58.5989 53.7807 58.6819L57.4582 61.1336C57.6228 61.2434 57.5451 61.5 57.3473 61.5H53.7824M53.7824 61.5C53.7824 61.5 52.5078 67.5 46.0078 67.5C39.5078 67.5 38.0078 61.5 38.0078 61.5M53.7824 61.5H38.0078M51.5078 36.5C51.5078 36.5 52.7622 38.3917 54.0078 38.5C54.1762 38.5146 54.3434 38.5168 54.5078 38.507M54.5078 29.5C53.0078 29.5 52.0078 30.3954 52.0078 31.5C52.0078 32.6046 54.0199 33.506 55.0078 34C56.0078 34.5 57.3327 34.8753 57.0078 36.5C56.7648 37.715 55.7127 38.4348 54.5078 38.507M54.5078 29.5C55.8177 29.5 57.0078 31 57.0078 31M54.5078 29.5V27M41.0078 20.6429L43.319 14.0393C43.3815 13.8608 43.6341 13.8608 43.6966 14.0393L46.0078 20.6429M41.0078 20.6429H46.0078M54.5078 38.507V41M32.0078 23.5C30.0078 23.5 27.5078 21.127 27.5078 18.5C27.5078 15.873 29.3808 13.5 32.0078 13.5C34.6348 13.5 36.5078 15.873 36.5078 18.5C36.5078 21.127 34.5078 23.5 32.0078 23.5ZM5.65968 71.1026L12.3644 75.4128C12.4436 75.4637 12.5475 75.4525 12.614 75.386L20.8804 67.1196C20.9494 67.0506 20.9585 66.9417 20.9019 66.8622L18.6501 63.6999C18.5767 63.5967 18.427 63.5869 18.3407 63.6797L12.1158 70.3754C12.0491 70.4472 11.94 70.46 11.8584 70.4056L7.67828 67.6189C7.58187 67.5546 7.45118 67.5854 7.39369 67.686L5.59418 70.8352C5.54139 70.9276 5.57017 71.0451 5.65968 71.1026Z" stroke="white" stroke-width="2" stroke-linecap="round"/>
</svg>
